<?xml version="1.0" encoding="utf-8"?>
<!-- Generator: Adobe Illustrator 19.2.1, SVG Export Plug-In . SVG Version: 6.00 Build 0)  -->
<svg version="1.1" id="Layer_1" xmlns="http://www.w3.org/2000/svg" xmlns:xlink="http://www.w3.org/1999/xlink" x="0px" y="0px"
	 viewBox="0 0 93.4 74.1" style="enable-background:new 0 0 93.4 74.1;" xml:space="preserve">
<style type="text/css">
	.st0{fill:#FCFCFC;}
</style>
<g>
	<path class="st0" d="M78.4,55.6c-1.4,0-2.9,0.1-4.3,0.2c-3.9,0.3-7.7,1-11.8,1.6c-5.6,0.9-11.6,1.8-18.3,1.8
		c-6.4,0-13.5-0.8-21.6-3.2c2.9,4.2,7.3,6.8,12.3,8.4c5.2,1.7,11.1,2.2,16.6,2.2c1.1,0,2.2,0,3.2-0.1c2.7-0.1,5.3-0.3,7.6-0.5
		C62.6,66,63.3,66,64,66c5.7,0,12.5,1.8,17.8,3.5c4.5,1.5,8,3,9,3.4l2.5-14.4C88.1,56.3,83.2,55.6,78.4,55.6z"/>
	<path class="st0" d="M40.4,0.7h-0.3c0,0-0.1,0-0.1,0c-0.3,0-0.6,0-1,0c-0.2,0-0.3,0-0.5,0c0,0-0.1,0-0.1,0c-0.1,0-0.3,0-0.4,0
		c-0.1,0-0.1,0-0.2,0h-0.5C17,1.8,1,14.4,1,29.5c0,15.9,17.7,28.9,39.4,28.9c21.8,0,39.4-12.9,39.4-28.9
		C79.8,13.6,62.2,0.7,40.4,0.7z M40.5,56.2c-20.7,0-37.5-12-37.5-26.8c0,0,0,0,0,0C3,14.5,19.8,2.4,40.5,2.4
		c20.7,0,37.5,12,37.5,26.8c0,0,0,0,0,0C77.9,44.1,61.2,56.2,40.5,56.2z"/>
	<path class="st0" d="M1.5,36.9c-0.4,1.5-0.5,3-0.5,4.5c0,15,17.7,27.1,39.4,27.1c3.8,0,7.4-0.4,10.9-1.1c-0.2,0-0.5,0-0.7,0
		c-5.5,0-11.5-0.5-16.8-2.2c-5.1-1.6-9.6-4.3-12.6-8.7C11.2,52.5,3.9,45.4,1.5,36.9z"/>
	<path class="st0" d="M54.8,57.2c2.6-0.3,5-0.7,7.4-1.1c4.3-0.7,8.3-1.4,12.4-1.7c3.7-4.1,5.8-9,5.8-14.2c0-1.5-0.2-3-0.5-4.5
		C77.2,45.7,67.5,53.8,54.8,57.2z"/>
	<path class="st0" d="M40.5,2.2C19.8,2.2,3,14.2,3,29c0,0,0,0,0,0c0,14.8,16.8,26.9,37.5,26.8c20.7,0,37.4-12,37.4-26.9c0,0,0,0,0,0
		C77.9,14.2,61.1,2.2,40.5,2.2z M34.5,5.1C34.5,5.1,34.5,5.1,34.5,5.1c0.2,0,0.3,0,0.3,0c0,0,0,0,0.1,0c0.1,0,0.2,0,0.3,0
		c0.2,0,0.4,0,0.6,0C42,5.1,47,8.7,47,13.2c0,4.4-5,8-11.3,8c-6.2,0-11.3-3.6-11.3-8C24.5,9,28.8,5.5,34.5,5.1z M19.5,39.2
		c-6.8,0-12.3-3.9-12.3-8.8c0-4.5,4.7-8.3,10.9-8.8c0.2,0,0.3,0,0.5,0c0.3,0,0.7,0,1,0c6.8,0,12.3,3.9,12.3,8.8
		C31.8,35.3,26.3,39.2,19.5,39.2z M44.7,52.1c-7.5,0-13.7-4.4-13.7-9.8c0-4.9,5-9,11.5-9.7h0.1h0.1h0.1h0.1h0.2h0.1
		c0.2,0,0.3,0,0.5,0c0.3,0,0.7,0,1,0c7.5,0,13.7,4.3,13.7,9.7C58.4,47.7,52.3,52.1,44.7,52.1z M60.4,32c-6.6,0-12-3.8-12-8.5
		c0-4.4,4.7-8.1,10.6-8.6c0,0,0.1,0,0.1,0c0.1,0,0.2,0,0.2,0c0,0,0,0,0.1,0c0.1,0,0.1,0,0.2,0c0.1,0,0.3,0,0.4,0c0,0,0.1,0,0.1,0
		h0.3c6.6,0,12,3.9,12,8.6C72.4,28.2,67,32,60.4,32z"/>
	<path class="st0" d="M19.5,22.7c-0.2,0-0.3,0-0.5,0c-0.2,0-0.3,0-0.5,0c-0.2,0-0.3,0-0.4,0c-5.7,0.5-9.9,3.9-9.9,7.9
		c0,4.4,5.1,7.9,11.3,7.9c6.2,0,11.3-3.6,11.3-7.9S25.7,22.7,19.5,22.7z"/>
	<path class="st0" d="M26,14.8c0.8,3.3,4.8,5.7,9.7,5.7c5.4,0,9.8-3.1,9.8-6.8c0-0.2,0-0.4,0-0.5c-1.8-0.2-3.7-0.3-5.5-0.3
		C35.1,12.9,30.3,13.5,26,14.8z"/>
	<path class="st0" d="M49.4,23.7c0,4.2,4.9,7.7,11,7.7c6,0,11-3.4,11-7.7c0-0.2,0-0.3,0-0.5c-3.3-3-7.5-5.5-12.3-7.2
		C53.6,16.6,49.4,19.9,49.4,23.7z"/>
	<path class="st0" d="M44.7,33.7c-0.2,0-0.3,0-0.5,0c-0.2,0-0.3,0-0.5,0c-0.2,0-0.3,0-0.4,0l0,0h0h-0.1H43H43h-0.1h-0.1h-0.1
		c-6,0.7-10.5,4.5-10.5,8.8c0,4.9,5.6,8.8,12.5,8.8c6.9,0,12.5-4,12.5-8.8C57.3,37.7,51.6,33.7,44.7,33.7z"/>
</g>
</svg>
