<?xml version="1.0" encoding="utf-8"?>
<!-- Generator: Adobe Illustrator 19.2.1, SVG Export Plug-In . SVG Version: 6.00 Build 0)  -->
<svg version="1.1" id="Layer_1" xmlns="http://www.w3.org/2000/svg" xmlns:xlink="http://www.w3.org/1999/xlink" x="0px" y="0px"
	 viewBox="0 0 28 13" style="enable-background:new 0 0 28 13;" xml:space="preserve">
<style type="text/css">
	.st0{fill:#FCFCFC;}
</style>
<title>Key</title>
<desc>Created with Sketch.</desc>
<g>
	<g transform="translate(-2.000000, -2.000000)">
		<g transform="translate(2.000000, 9.000000)">
			<path class="st0" d="M18-1c0-2.2,1.8-4,4-4s4,1.8,4,4s-1.8,4-4,4S18,1.2,18-1z M8,0h8.1C16.6,2.8,19,5,22,5c3.3,0,6-2.7,6-6
				s-2.7-6-6-6c-3,0-5.4,2.2-5.9,5H1C0.4-2,0-1.6,0-1c0,0.6,0.4,1,1,1h1v3c0,0.5,0.4,1,1,1c0.6,0,1-0.5,1-1V0h2v5c0,0.6,0.4,1,1,1
				c0.6,0,1-0.5,1-1V0z"/>
		</g>
	</g>
</g>
</svg>
