<?xml version="1.0" encoding="utf-8"?>
<!-- Generator: Adobe Illustrator 19.2.1, SVG Export Plug-In . SVG Version: 6.00 Build 0)  -->
<svg version="1.1" id="Layer_1" xmlns="http://www.w3.org/2000/svg" xmlns:xlink="http://www.w3.org/1999/xlink" x="0px" y="0px"
	 viewBox="0 0 2 3.2" style="enable-background:new 0 0 2 3.2;" xml:space="preserve">
<style type="text/css">
	.st0{fill:#F4A914;}
	.st1{fill:#FFFFFF;}
</style>
<rect x="0.4" y="0.3" class="st0" width="1.2" height="1.2"/>
<g>
	<path class="st1" d="M0,0.3v2.9c0,0,0.1,0.1,0.1,0l0.8-0.7c0,0,0,0,0.1,0V1.3L0.7,1.4l0.1-0.3L0.5,0.9l0.3-0.1L1,0.6V0H0.2
		C0.2,0,0,0,0,0.3z"/>
	<path class="st1" d="M2,0.3v2.9c0,0-0.1,0.1-0.1,0L1.1,2.5c0,0,0,0-0.1,0V1.3l0.3,0.2L1.2,1.1l0.2-0.2L1.2,0.8L1,0.6V0h0.8
		C1.8,0,2,0,2,0.3z"/>
</g>
</svg>
