<?xml version="1.0" encoding="utf-8"?>
<!-- Generator: Adobe Illustrator 19.2.1, SVG Export Plug-In . SVG Version: 6.00 Build 0)  -->
<svg version="1.1" id="Layer_1" xmlns="http://www.w3.org/2000/svg" xmlns:xlink="http://www.w3.org/1999/xlink" x="0px" y="0px"
	 viewBox="0 0 88 93" style="enable-background:new 0 0 88 93;" xml:space="preserve">
<style type="text/css">
	.st0{fill:#FCFCFC;}
</style>
<path class="st0" d="M85.5,62.7c-1.9-3.5-5.5-5.8-9.5-6c-0.1-3.5-1-7-2.7-10.1c-1.2-2.3-2.8-4.2-4.7-5.9c1-0.6,1.9-1.2,2.7-2.1
	c4.3-4.6,4.1-11.9-0.5-16.2c-1.7-1.6-4-2.7-6.3-3c-0.5-2.3-1.6-4.5-3.4-6.1c-1.9-1.8-4.5-2.9-7.2-3.1c-0.3-2.6-1.6-5.1-3.5-7
	C45.9-1.2,38.6-1,34.2,3.6c-2.8,2.9-3.8,7-2.7,10.8c-2.7,1-5.1,2.4-7.2,4.3C12.4,19.4,3,29.2,3,41.2c0,3.6,0.8,7.1,2.5,10.2
	C2.1,53.5,0,57.2,0,61.2c0,6.3,5.2,11.5,11.5,11.5c2.4,0,4.7-0.8,6.7-2.1c1.9,1.4,4.3,2.1,6.7,2.1c2.7,0,5.3-1,7.3-2.7
	c1.4,1.1,3,1.9,4.7,2.3c1.2,1.3,2.5,2.5,4,3.5c-2,3.4-2,7.7-0.1,11.2c1.5,2.7,3.9,4.7,6.8,5.5c1.1,0.3,2.2,0.5,3.3,0.5
	c1.9,0,3.8-0.5,5.5-1.4c2.1-1.1,3.8-2.9,4.8-5.1c2.4,0.3,4.8-0.2,6.9-1.3c2.4-1.3,4.2-3.4,5.2-5.8c2.6,0.5,5.4,0.1,7.7-1.2
	c2.7-1.5,4.7-3.9,5.5-6.8C87.3,68.5,87,65.4,85.5,62.7z M33.8,16.9c0.4-0.1,0.8-0.4,0.9-0.8c0.2-0.4,0.2-0.8,0-1.2
	c-1.3-3.1-0.7-6.7,1.6-9.2c3.2-3.4,8.6-3.6,12-0.4C50,6.9,51,9.2,51,11.6c0,0.4,0.2,0.8,0.5,1.1c0.3,0.3,0.7,0.4,1.1,0.4
	c2.4-0.2,4.7,0.6,6.4,2.3c1.5,1.4,2.5,3.4,2.6,5.5c0.1,0.8,0.7,1.4,1.5,1.4c2.1,0.1,4.1,0.9,5.6,2.3c3.4,3.2,3.6,8.6,0.4,12
	c-2.3,2.5-5.9,3.3-9.1,2.2c-0.4-0.1-0.9-0.1-1.2,0.1c-0.4,0.2-0.6,0.6-0.7,1c-0.7,3.5-2.4,6.6-4.9,9.2c-1.6,1.7-3.5,3.1-5.6,4.1
	c-0.6-0.6-1.3-1.2-2.1-1.7c1.6-3.2,2.5-6.6,2.5-10.2c0-11.2-8.2-20.5-19-22.2C30.5,18.1,32.1,17.4,33.8,16.9z M32.2,66.5
	c-0.4,0-0.8,0.2-1.1,0.5c-1.6,1.8-3.8,2.7-6.2,2.7c-2.1,0-4.1-0.8-5.7-2.2c-0.6-0.5-1.4-0.5-2,0c-1.6,1.4-3.6,2.2-5.7,2.2
	c-4.7,0-8.5-3.8-8.5-8.5c0-3.4,2-6.4,5.1-7.8c0.4-0.2,0.7-0.5,0.8-0.9C9,52.1,9,51.6,8.8,51.3C7,48.3,6,44.8,6,41.2
	c0-10.7,8.7-19.5,19.5-19.5c10.7,0,19.5,8.7,19.5,19.5c0,3.5-1,7-2.8,10.1c-0.2,0.4-0.3,0.8-0.1,1.2c0.1,0.4,0.4,0.7,0.8,0.9
	c3.1,1.4,5.1,4.4,5.1,7.8c0,4.7-3.8,8.5-8.5,8.5c-2.4,0-4.6-1-6.2-2.7C33,66.6,32.6,66.5,32.2,66.5z M79.5,75.7
	c-2.1,1.1-4.5,1.3-6.8,0.6c-0.4-0.1-0.8-0.1-1.2,0.1c-0.4,0.2-0.6,0.5-0.7,0.9c-0.6,2.3-2.1,4.2-4.2,5.4c-1.8,1-4,1.3-6,0.8
	c-0.7-0.2-1.5,0.2-1.8,1c-0.7,2-2.1,3.6-3.9,4.6c-2,1.1-4.3,1.3-6.5,0.7c-2.2-0.6-4-2.1-5.1-4.1c-1.6-3-1.3-6.6,0.8-9.3
	c0.3-0.3,0.4-0.8,0.3-1.2c-0.1-0.4-0.3-0.8-0.7-1c-0.8-0.5-1.6-1-2.3-1.6c5.4-1,9.6-5.7,9.6-11.4c0-2-0.5-3.9-1.5-5.6
	c2.2-1.2,4.2-2.6,5.9-4.5c2.4-2.6,4.2-5.7,5.2-9.1c1.6,0.3,3.2,0.3,4.8-0.1c2.2,1.7,3.9,3.7,5.3,6.1c1.7,3.1,2.5,6.6,2.3,10.2
	c0,0.4,0.1,0.9,0.5,1.2c0.3,0.3,0.7,0.4,1.2,0.4c3.4-0.3,6.6,1.4,8.2,4.4C85.1,68.3,83.6,73.4,79.5,75.7z"/>
</svg>
