<?xml version="1.0" encoding="utf-8"?>
<!-- Generator: Adobe Illustrator 19.2.1, SVG Export Plug-In . SVG Version: 6.00 Build 0)  -->
<svg version="1.1" id="Layer_1" xmlns="http://www.w3.org/2000/svg" xmlns:xlink="http://www.w3.org/1999/xlink" x="0px" y="0px"
	 viewBox="0 0 2 3.2" style="enable-background:new 0 0 2 3.2;" xml:space="preserve">
<style type="text/css">
	.st0{fill:#F4A914;}
	.st1{fill:#FFFFFF;}
</style>
<rect x="0.4" y="0.3" class="st0" width="1.2" height="1.2"/>
<path d="M1,2.4C1,2.4,1.1,2.5,1,2.4l0.9,0.7c0.1,0.1,0.1,0,0.1,0V0.3C2,0,1.8,0,1.8,0H1v0.6l0.2,0.3l0.3,0.1L1.2,1.1l0.1,0.3L1,1.3
	L0.7,1.4l0.1-0.3L0.5,0.9l0.3-0.1L1,0.6V0H0.2C0.2,0,0,0,0,0.3v2.9c0,0,0.1,0.1,0.1,0L1,2.4C0.9,2.5,0.9,2.4,1,2.4"/>
<path class="st1" d="M1,2.4"/>
</svg>
