<?xml version="1.0" encoding="utf-8"?>
<!-- Generator: Adobe Illustrator 19.2.1, SVG Export Plug-In . SVG Version: 6.00 Build 0)  -->
<svg version="1.1" id="Layer_1" xmlns="http://www.w3.org/2000/svg" xmlns:xlink="http://www.w3.org/1999/xlink" x="0px" y="0px"
	 viewBox="0 0 494.9 612" style="enable-background:new 0 0 494.9 612;" xml:space="preserve">
<style type="text/css">
	.st0{fill:#FCFCFC;}
</style>
<g>
	<g>
		<path class="st0" d="M249.9,326c90.6,0,123.1-90.7,131.7-165.2C392,69.1,348.7,0,249.9,0c-98.8,0-142.2,69.1-131.7,160.8
			C126.7,235.3,159.3,326,249.9,326z"/>
		<path class="st0" d="M494.8,541.9c-1-28.9-4.4-57.9-9.4-86.4c-6.1-34.5-13.9-85-44-107.5c-17.4-13-39.9-17.2-59.9-25.1
			c-9.7-3.8-18.4-7.6-26.5-11.9c-27.5,30.2-63.4,46-105.2,46c-41.8,0-77.7-15.8-105.2-46c-8.2,4.3-16.8,8.1-26.5,11.9
			c-19.9,7.8-42.5,12.1-59.9,25.1c-30.1,22.5-37.9,73-44,107.5c-5,28.5-8.4,57.5-9.4,86.4c-0.8,22.4,10.3,25.5,29,32.3
			c23.5,8.5,47.7,14.7,72,19.9c47.1,9.9,95.6,17.6,143.9,17.9c48.3-0.3,96.8-8,143.9-17.9c24.4-5.1,48.6-11.4,72-19.9
			C484.6,567.4,495.6,564.3,494.8,541.9z"/>
	</g>
</g>
</svg>
